<?xml version="1.0" ?>
<!DOCTYPE svg PUBLIC "-//W3C//DTD SVG 1.1//EN" "http://www.w3.org/Graphics/SVG/1.1/DTD/svg11.dtd">

<!-- CanvasBack -->
<svg version="1.1"
     xmlns="http://www.w3.org/2000/svg"
     xmlns:xlink="http://www.w3.org/1999/xlink"
     height="400" width="680" viewBox="0 0 680 400"
     preserveAspectRatio="xMinYMin">

    <!-- MarkerHead -->
    <defs>
        <marker
                id="beginArrow"
                markerWidth="12"
                markerHeight="12"
                refX="0"
                refY="6"
                orient="auto">
            <path d="M0,6 L12,0 L12,12 L0,6" style="fill: #000000;" />
        </marker>
        <marker
                id="endArrow"
                markerWidth="12"
                markerHeight="12"
                refX="12"
                refY="6"
                orient="auto">
            <path d="M0,0 L12,6 L0,12 L0,0 " style="fill: #000000;" />
        </marker>
    </defs>

    <!-- MarkerX -->
    <line x1="35"  y1="55" x2="35"   y2="345"
          style="stroke: #000000;
	marker-start: url(#beginArrow);
	marker-end: url(#endArrow);"/>

    <!-- MarkerY -->
    <line x1="55"  y1="365" x2="625"   y2="365"
          style="stroke: #000000;
	marker-start: url(#beginArrow);
	marker-end: url(#endArrow);"/>

    <!-- CanvasText -->
    <text style="text-anchor: middle" transform="translate(20,200) rotate(-90)"> 300cm </text>
    <text style="text-anchor: middle" x="340" y="380">580cm </text>

    <!-- CanvasFront -->
    <svg x="50" y="50" width="580" height="300">

        <!-- CanvasFill -->
        <rect x="0" y="0" height="300" width="580" style="stroke:#000000; fill:#797D7F" />

        <!-- Stolpe -->
        <rect x="96" y="0" height="9" width="9" style="stroke:#000000; fill:#ffffff"/>
        <rect x="286" y="0" height="9" width="9" style="stroke:#000000; fill:#ffffff"/>
        <rect x="476" y="0" height="9" width="9" style="stroke:#000000; fill:#ffffff"/>
        <rect x="96" y="291" height="9" width="9" style="stroke:#000000; fill:#ffffff"/>
        <rect x="286" y="291" height="9" width="9" style="stroke:#000000; fill:#ffffff"/>
        <rect x="476" y="291" height="9" width="9" style="stroke:#000000; fill:#ffffff"/>

        <!-- Rem -->
        <rect x="0" y="0" height="5" width="290" style="stroke:#000000; fill:#ffffff" />
        <rect x="290" y="0" height="5" width="290" style="stroke:#000000; fill:#ffffff" />
        <rect x="0" y="295" height="5" width="290" style="stroke:#000000; fill:#ffffff" />
        <rect x="290" y="295" height="5" width="290" style="stroke:#000000; fill:#ffffff" />

        <!-- Sper -->
        <rect x="0" y="0" height="300" width="5" style="stroke:#000000; fill:#ffffff" />
        <rect x="46" y="0" height="300" width="5" style="stroke:#000000; fill:#ffffff" />
        <rect x="94" y="0" height="300" width="5" style="stroke:#000000; fill:#ffffff" />
        <rect x="142" y="0" height="300" width="5" style="stroke:#000000; fill:#ffffff" />
        <rect x="190" y="0" height="300" width="5" style="stroke:#000000; fill:#ffffff" />
        <rect x="238" y="0" height="300" width="5" style="stroke:#000000; fill:#ffffff" />
        <rect x="286" y="0" height="300" width="5" style="stroke:#000000; fill:#ffffff" />
        <rect x="334" y="0" height="300" width="5" style="stroke:#000000; fill:#ffffff" />
        <rect x="382" y="0" height="300" width="5" style="stroke:#000000; fill:#ffffff" />
        <rect x="430" y="0" height="300" width="5" style="stroke:#000000; fill:#ffffff" />
        <rect x="478" y="0" height="300" width="5" style="stroke:#000000; fill:#ffffff" />
        <rect x="526" y="0" height="300" width="5" style="stroke:#000000; fill:#ffffff" />
        <rect x="574" y="0" height="300" width="5" style="stroke:#000000; fill:#ffffff" />

        <!-- Stern -->

        <!-- Legte -->
        <rect x="0" y="0" height="7" width="580" style="stroke:#000000; fill:#ffffff" fill-opacity="0.6" stroke-opacity="0.3"/>
        <rect x="0" y="42" height="7" width="580" style="stroke:#000000; fill:#ffffff"  fill-opacity="0.6" stroke-opacity="0.5"/>
        <rect x="0" y="79" height="7" width="580" style="stroke:#000000; fill:#ffffff" fill-opacity="0.6" stroke-opacity="0.5"/>
        <rect x="0" y="116" height="7" width="580" style="stroke:#000000; fill:#ffffff" fill-opacity="0.6" stroke-opacity="0.5"/>
        <rect x="0" y="177" height="7" width="580" style="stroke:#000000; fill:#ffffff" fill-opacity="0.6" stroke-opacity="0.5"/>
        <rect x="0" y="214" height="7" width="580" style="stroke:#000000; fill:#ffffff" fill-opacity="0.6" stroke-opacity="0.5"/>
        <rect x="0" y="251" height="7" width="580" style="stroke:#000000; fill:#ffffff" fill-opacity="0.6" stroke-opacity="0.5"/>
        <rect x="0" y="293" height="7" width="580" style="stroke:#000000; fill:#ffffff" fill-opacity="0.6" stroke-opacity="0.3"/>

    </svg>
</svg>