<?xml version="1.0" ?>
<!DOCTYPE svg PUBLIC "-//W3C//DTD SVG 1.1//EN" "http://www.w3.org/Graphics/SVG/1.1/DTD/svg11.dtd">

<svg version="1.1"
     xmlns="http://www.w3.org/2000/svg"
     xmlns:xlink="http://www.w3.org/1999/xlink"
     height="100%" viewBox="0 0 855 690"
     preserveAspectRatio="xMinYMin">


        <defs>
            <marker
                    id="beginArrow"
                    markerWidth="12"
                    markerHeight="12"
                    refX="0"
                    refY="6"
                    orient="auto">
                <path d="M0,6 L12,0 L12,12 L0,6" style="fill: #000000;" />
            </marker>
            <marker
                    id="endArrow"
                    markerWidth="12"
                    markerHeight="12"
                    refX="12"
                    refY="6"
                    orient="auto">
                <path d="M0,0 L12,6 L0,12 L0,0 " style="fill: #000000;" />
            </marker>
        </defs>

        <line x1="10"  y1="0" x2="10"   y2="600"
              style="stroke: #006600;
	marker-start: url(#beginArrow);
	marker-end: url(#endArrow);"/>

    <line x1="30"  y1="630" x2="810"   y2="630"
              style="stroke: #006600;
	marker-start: url(#beginArrow);
	marker-end: url(#endArrow);"/>

    <text style="text-anchor: middle" transform="translate(20,300) rotate(-90)">600 cm</text>
    <text style="text-anchor: middle" x="420" y="650">700 cm</text>



<svg version="1.1" xmlns="http://www.w3.org/2000/svg" xmlns:xlink="http://www.w3.org/1999/xlink"
     viewBox="0 0 800 690">

    <!-- Ramme -->
    <rect x="0" y="0" height="600" width="780" style="stroke:#000000; fill:#ffffff" />

    <!-- Remme -->
    <rect x="0" y="35" height="4.5" width="780" style="stroke:#000000; fill:#ffffff" />
    <rect x="0" y="35" height="4.5" width="780" style="stroke:#000000; fill:#ffffff" />
    <rect x="0" y="565" height="4.5" width="780" style="stroke:#000000; fill:#ffffff" />

    <!-- Spær -->
    <rect x="0" y="0" height="600" width="4.5" style="stroke:#000000; fill:#ffffff" />
    <rect x="50" y="0" height="600" width="4.5" style="stroke:#000000; fill:#ffffff" />
    <rect x="775.5" y="0" height="600" width="4.5" style="stroke:#000000; fill:#ffffff"/>

    <!-- kryds -->
    <line x1="55" y1="35" x2="600" y2="569.5" style="stroke:#000000; stroke-dasharray: 5 5;"/>
    <line x1="55" y1="569.5" x2="600" y2="35"  style="stroke:#000000; stroke-dasharray: 5 5;"/>

    <!-- Stolper -->
    <rect x="110" y="32" height="9.7" width="10" style="stroke:#000000; fill:#ffffff"/>
    <rect x="420" y="32" height="9.7" width="10" style="stroke:#000000; fill:#ffffff"/>
    <rect x="730" y="32" height="9.7" width="10" style="stroke:#000000; fill:#ffffff"/>
    <rect x="110" y="32" height="9.7" width="10" style="stroke:#000000; fill:#ffffff"/>
    <rect x="420" y="32" height="9.7" width="10" style="stroke:#000000; fill:#ffffff"/>
    <rect x="730" y="32" height="9.7" width="10" style="stroke:#000000; fill:#ffffff"/>

    </svg>
</svg>